<!-- Generated by IcoMoon.io -->
<svg version="1.1" xmlns="http://www.w3.org/2000/svg" width="416" height="448" viewBox="0 0 416 448">
<title></title>
<g id="icomoon-ignore">
</g>
<path d="M402.75 242.75c0 8.5-3.5 16.5-9.25 22.5l-18.75 18.75c-6 6-14.25 9.5-22.75 9.5s-16.75-3.5-22.5-9.5l-73.5-73.25v176c0 18-15 29.25-32 29.25h-32c-17 0-32-11.25-32-29.25v-176l-73.5 73.25c-5.75 6-14 9.5-22.5 9.5s-16.75-3.5-22.5-9.5l-18.75-18.75c-6-6-9.5-14-9.5-22.5s3.5-16.75 9.5-22.75l162.75-162.75c5.75-6 14-9.25 22.5-9.25s16.75 3.25 22.75 9.25l162.75 162.75c5.75 6 9.25 14.25 9.25 22.75z"></path>
</svg>
