<!-- Generated by IcoMoon.io -->
<svg version="1.1" xmlns="http://www.w3.org/2000/svg" width="416" height="448" viewBox="0 0 416 448">
<title></title>
<g id="icomoon-ignore">
</g>
<path d="M402.75 208c0 8.5-3.5 16.75-9.25 22.5l-162.75 163c-6 5.75-14.25 9.25-22.75 9.25s-16.75-3.5-22.5-9.25l-162.75-163c-6-5.75-9.5-14-9.5-22.5s3.5-16.75 9.5-22.75l18.5-18.75c6-5.75 14.25-9.25 22.75-9.25s16.75 3.5 22.5 9.25l73.5 73.5v-176c0-17.5 14.5-32 32-32h32c17.5 0 32 14.5 32 32v176l73.5-73.5c5.75-5.75 14-9.25 22.5-9.25s16.75 3.5 22.75 9.25l18.75 18.75c5.75 6 9.25 14.25 9.25 22.75z"></path>
</svg>
